<?xml version="1.0" encoding="UTF-8"?>
<svg width="88px" height="112px" viewBox="0 0 88 112" version="1.1" xmlns="http://www.w3.org/2000/svg" xmlns:xlink="http://www.w3.org/1999/xlink">
    <!-- Generator: Sketch 53.2 (72643) - https://sketchapp.com -->
    <title>Group 2</title>
    <desc>Created with Sketch.</desc>
    <g id="Page-1" stroke="none" stroke-width="1" fill="none" fill-rule="evenodd">
        <g id="Face-Mask-Landing" transform="translate(-941.000000, -3670.000000)">
            <g id="Group-2" transform="translate(941.000000, 3657.941106)">
                <g id="noun_Washing_82651" transform="translate(0.000000, 47.058894)" fill="#000000" fill-rule="nonzero">
                    <path d="M77.875,77 L87.991,1.132 L86.009,0.867 L82.291,28.752 C80.508,28.222 79.369,26.877 78.105,25.36 C76.403,23.316 74.474,21 70.673,21 C66.872,21 64.943,23.316 63.24,25.36 C61.613,27.313 60.208,29 57.344,29 C54.479,29 53.073,27.313 51.445,25.36 C49.742,23.316 47.812,21 44.009,21 C40.208,21 38.278,23.316 36.575,25.36 C34.948,27.313 33.543,29 30.679,29 C27.812,29 26.406,27.313 24.777,25.359 C23.073,23.316 21.142,21 17.339,21 C13.536,21 11.605,23.316 9.901,25.359 C8.636,26.877 7.495,28.223 5.708,28.753 L1.991,0.868 L0.009,1.133 L10.125,77 L77.875,77 Z M11.438,26.64 C13.066,24.687 14.473,23 17.339,23 C20.205,23 21.612,24.687 23.24,26.64 C24.944,28.683 26.875,31 30.678,31 C34.479,31 36.408,28.684 38.111,26.64 C39.738,24.687 41.144,23 44.008,23 C46.873,23 48.279,24.687 49.907,26.64 C51.61,28.683 53.54,31 57.342,31 C61.143,31 63.073,28.684 64.776,26.64 C66.404,24.687 67.81,23 70.673,23 C73.536,23 74.942,24.687 76.568,26.64 C77.943,28.291 79.486,30.099 82.026,30.741 L76.125,75 L11.875,75 L5.974,30.742 C8.517,30.101 10.061,28.292 11.438,26.64 Z" id="Shape"></path>
                </g>
                <g id="Group-3" transform="translate(54.989258, 37.000000) rotate(-15.000000) translate(-54.989258, -37.000000) translate(20.489258, 8.000000)" stroke="#131415" stroke-width="2">
                    <path d="M57.65625,20.0106028 L51.0231956,20.0106028 L37.5405937,11.8545151 C35.6712082,10.715472 33.3316026,10.7151394 31.4619,11.8536511 L17.9768044,20.0106028 L11.34375,20.0106028 C8.39304663,20.0146316 6.00245291,22.4316456 6,25.4134106 L6,32.6171543 C6.00246272,35.5989122 8.39305357,38.0159152 11.34375,38.0199441 L17.7805641,38.0199441 L23.6837691,43.4403379 C23.7332723,43.485746 23.7852533,43.5283166 23.8394681,43.5678499 C30.2251042,48.14405 38.7748958,48.14405 45.1605319,43.5678499 C45.2147467,43.5283166 45.2667277,43.485746 45.3162309,43.4403379 L51.2194359,38.0199441 L57.65625,38.0199441 C60.6069464,38.0159152 62.9975373,35.5989122 63,32.6171543 L63,25.4134106 C62.9975471,22.4316456 60.6069534,20.0146316 57.65625,20.0106028 Z" id="Shape" fill-rule="nonzero" transform="translate(34.500000, 29.000000) rotate(-27.000000) translate(-34.500000, -29.000000) "></path>
                    <path d="M18.9073858,28.6948337 L18.9073858,45.2660618" id="Line-3" stroke-linecap="square" transform="translate(18.907386, 36.944834) rotate(-27.000000) translate(-18.907386, -36.944834) "></path>
                    <path d="M50.0926142,12.8051663 L50.0926142,29.3763943" id="Line-3" stroke-linecap="square" transform="translate(50.092614, 21.055166) rotate(-27.000000) translate(-50.092614, -21.055166) "></path>
                    <path d="M29.7753906,17.6708984 L40.7753906,39.6708984" id="Line-4" stroke-linecap="square"></path>
                </g>
            </g>
        </g>
    </g>
</svg>