<?xml version="1.0" encoding="UTF-8"?>
<svg width="88px" height="106px" viewBox="0 0 88 106" version="1.1" xmlns="http://www.w3.org/2000/svg" xmlns:xlink="http://www.w3.org/1999/xlink">
    <!-- Generator: Sketch 53.2 (72643) - https://sketchapp.com -->
    <title>noun_face mask_827457</title>
    <desc>Created with Sketch.</desc>
    <g id="Page-1" stroke="none" stroke-width="1" fill="none" fill-rule="evenodd">
        <g id="Face-Mask-Landing" transform="translate(-409.000000, -3676.000000)" fill="#000000" fill-rule="nonzero">
            <g id="noun_face-mask_827457" transform="translate(409.000000, 3676.000000)">
                <path d="M87.0102619,59.0046484 C86.7218374,58.6122688 86.3705656,58.2717554 85.9732805,57.9661954 C85.2112562,56.6063971 84.2707904,55.1462488 83.2865559,53.620704 C81.0577192,50.1637042 78.2823349,45.8610588 78.9871231,44.0547595 C80.5807526,40.3846571 81.306864,38.7091511 80.8994785,32.9993511 C80.3057954,24.669177 76.9434617,16.4303326 71.6766285,10.3980598 C65.9934316,3.88658774 55.2162318,0 42.8510139,0 C31.3162789,0 20.5817255,3.3543947 14.1365043,8.97399241 C8.97516497,13.4717001 0.279783918,22.9542075 0.010438093,35.9286679 C-0.285842315,50.2369935 5.7766833,59.5052707 11.6371995,68.4691153 L12.8930245,70.3791471 C14.6202046,72.9814809 16.5774509,75.9310932 16.9489237,78.7431471 C17.8602104,85.6706768 16.872609,91.3827318 14.0108096,95.7203306 C12.1467121,98.5481699 10.1299852,101.528225 8.01225365,104.164385 C7.74066327,104.502643 7.68679411,104.967185 7.87309164,105.359564 C8.05938917,105.750816 8.45442971,106 8.88538303,106 L56.8132281,106 C57.2093909,106 57.5752523,105.79028 57.7772617,105.449767 C57.9803933,105.106998 57.9882492,104.684175 57.7997071,104.335769 C56.5360263,101.995022 55.794203,98.8447097 55.8592949,96.6922594 L71.0066308,96.6922594 C75.7605846,96.6922594 77.6471276,93.1935412 78.6650304,90.5269383 L87.6555696,64.3728074 C88.2795541,62.3240897 88.0506101,60.4174405 87.0102619,59.0046484 Z M2.25498664,35.9760241 C2.49290878,24.4774973 9.64740726,15.8722064 15.6078059,10.6765591 C21.6568642,5.4031124 31.8426255,2.25392773 42.8521361,2.25392773 C54.5799023,2.25392773 64.7252617,5.85412345 69.9898503,11.8841412 C74.9402021,17.5556052 78.1016487,25.3107402 78.6627859,33.1617151 C79.0297695,38.3167714 78.4585319,39.6337237 76.9299944,43.1527374 C76.924383,43.1662678 76.8895925,43.2474498 76.8839811,43.2621076 C75.7751742,46.1170076 78.5090343,50.357639 81.4033796,54.8463265 C81.7512846,55.3864122 82.1306134,55.9749817 82.5133089,56.5849741 C81.7434287,56.4541809 80.9050898,56.3820191 79.9848249,56.3820191 L47.814833,56.3831467 C45.5736512,56.3831467 43.5602912,57.2006042 42.1484702,58.5085362 L3.03160043,45.0075204 C2.47944149,42.2213996 2.18765018,39.2345789 2.25498664,35.9760241 Z M14.7604888,69.128719 L13.5136421,67.2299625 C9.6283286,61.2890194 5.65547768,55.2082629 3.62528352,47.5974514 L40.7142036,60.397145 C40.3180408,61.1965621 40.0980751,62.0771612 40.0991973,63.0073715 L41.9453385,85.3831573 L19.4471062,85.3831573 C19.5716786,83.2047739 19.4976085,80.9001074 19.1743936,78.4477348 C18.734462,75.1158907 16.6234641,71.9340077 14.7604888,69.128719 Z M11.1815562,103.744945 C12.8346662,101.540628 14.4069724,99.2055185 15.8827631,96.9662486 C17.6447337,94.2928806 18.7456848,91.1639914 19.2271404,87.6382125 L42.131636,87.6382125 L42.3403791,90.1593643 C42.3403791,93.7606876 45.8037175,96.6911319 50.061626,96.6911319 L53.6315805,96.6911319 C53.5698554,98.8672602 54.1309926,101.4944 55.0467684,103.744945 L11.1815562,103.744945 L11.1815562,103.744945 Z M85.5221262,63.6737403 L84.4638216,66.7518907 L77.8727048,85.9243706 L76.556277,89.7534544 C75.3026967,93.0345598 73.642853,94.4349491 71.0066308,94.4349491 L57.0399275,94.4349491 L56.7537475,94.4349491 L53.9996865,94.4349491 L50.061626,94.4349491 C47.0427083,94.4349491 44.5849276,92.5170246 44.5815608,90.0657795 L42.3403791,62.9137867 C42.3403791,62.0320601 42.6849173,61.2123475 43.2707444,60.5324483 C43.2887008,60.5121528 43.310024,60.4963674 43.3279804,60.4760719 C44.3189486,59.3677123 45.9585913,58.6370744 47.8170775,58.6370744 L79.9848249,58.6359469 C81.8287216,58.6359469 83.2663549,58.9415068 84.2438558,59.5154184 C84.6411409,59.7488166 84.968845,60.0216783 85.2056449,60.3441512 C86.0237828,61.457021 85.7477033,62.9318271 85.5221262,63.6737403 Z" id="Shape"></path>
            </g>
        </g>
    </g>
</svg>