<?xml version="1.0" encoding="UTF-8"?>
<svg width="20px" height="27px" viewBox="0 0 20 27" version="1.1" xmlns="http://www.w3.org/2000/svg" xmlns:xlink="http://www.w3.org/1999/xlink">
    <!-- Generator: sketchtool 53.2 (72643) - https://sketchapp.com -->
    <title>8446C4FB-1B8E-4273-8922-3C554D932B8E</title>
    <desc>Created with sketchtool.</desc>
    <g id="Page-1" stroke="none" stroke-width="1" fill="none" fill-rule="evenodd">
        <g id="Face-Mask-Landing" transform="translate(-618.000000, -1015.000000)" stroke="#FFFFFF">
            <g id="Group" transform="translate(583.000000, 997.000000)">
                <g id="Group-5" transform="translate(36.000000, 19.000000)">
                    <path d="M8.9997894,13.6092643 C6.5029133,13.6092643 4.47188487,11.5660526 4.47188487,9.05419889 C4.47188487,6.54234514 6.5029133,4.49870973 8.9997894,4.49870973 C11.4966655,4.49870973 13.5281151,6.54234514 13.5281151,9.05419889 C13.5281151,11.5660526 11.4966655,13.6092643 8.9997894,13.6092643 Z M8.9997894,0 C4.03720604,0 0,4.06142345 0,9.05419889 C0,15.2499353 8.05419445,24.3452357 8.3966304,24.7295561 C8.71884872,25.0905716 9.28115128,25.0897241 9.6029484,24.7295561 C9.94580555,24.3452357 18,15.2499353 18,9.05419889 C17.9995788,4.06142345 13.9623728,0 8.9997894,0 Z" id="Stroke-3"></path>
                    <path d="M8.9997894,13.6092643 C6.5029133,13.6092643 4.47188487,11.5660526 4.47188487,9.05419889 C4.47188487,6.54234514 6.5029133,4.49870973 8.9997894,4.49870973 C11.4966655,4.49870973 13.5281151,6.54234514 13.5281151,9.05419889 C13.5281151,11.5660526 11.4966655,13.6092643 8.9997894,13.6092643 M8.9997894,0 C4.03720604,0 0,4.06142345 0,9.05419889 C0,15.2499353 8.05419445,24.3452357 8.3966304,24.7295561 C8.71884872,25.0905716 9.28115128,25.0897241 9.6029484,24.7295561 C9.94580555,24.3452357 18,15.2499353 18,9.05419889 C17.9995788,4.06142345 13.9623728,0 8.9997894,0" id="Fill-1"></path>
                </g>
            </g>
        </g>
    </g>
</svg>